<svg xmlns="http://www.w3.org/2000/svg" width="76" height="75.91" viewBox="0 0 76 75.91"><defs><style>.cls-1{fill:#6d6d6d;fill-rule:evenodd}</style></defs><path class="cls-1" d="M38 75.91h-.03a1.971 1.971 0 0 1-.9-.23L1.11 57.72a1.991 1.991 0 0 1-1.1-1.79V20a1.985 1.985 0 0 1 .18-.88.594.594 0 0 1 .04-.08 1.988 1.988 0 0 1 .9-.87l17.96-8.98a.142.142 0 0 0 .04-.02L37.11.19a1.991 1.991 0 0 1 1.78 0l35.98 17.97a2.012 2.012 0 0 1 .9.88.594.594 0 0 1 .04.08 1.985 1.985 0 0 1 .18.88v35.93a1.991 1.991 0 0 1-1.1 1.79L38.93 75.68a1.971 1.971 0 0 1-.9.23H38zm2-36.73v31.5l31.99-15.99v-31.5l-15.08 7.54a.147.147 0 0 1-.04.02zM4.01 54.69L36 70.68v-31.5L4.01 23.19v31.5zm2.47-34.73L38 35.71l13.53-6.76L20 13.2zm17.99-8.99L56 26.72l13.52-6.76L38 4.21zM29 57.93a2.005 2.005 0 0 1-.89-.21l-18-9A1.985 1.985 0 0 1 9 46.94v-9a2.006 2.006 0 0 1 2.9-1.78l18 8.99a2.009 2.009 0 0 1 1.1 1.79v8.99a2.009 2.009 0 0 1-.95 1.7 1.968 1.968 0 0 1-1.05.3zM13 45.7l14 7v-4.53l-14-6.99v4.52z"/></svg>