<svg xmlns="http://www.w3.org/2000/svg" width="13" height="9" viewBox="0 0 13 9"><defs><style>.cls-1{fill:#fff;fill-rule:evenodd}</style></defs><path class="cls-1" d="M13 4.15A3.09 3.09 0 0 1 11.527 4a1.563 1.563 0 0 0 1.416-.85 2.264 2.264 0 0 1-1.532.17l-.072-.3A2.793 2.793 0 0 0 8.583.86l.3-.12c.135-.05.932-.18.807-.46-.106-.25-1.081.19-1.264.25A.967.967 0 0 0 9.111 0a1.964 1.964 0 0 0-1.016.48.686.686 0 0 0 .2-.39A6.3 6.3 0 0 0 6.26 3.25a4.511 4.511 0 0 0-.985-.79A23.986 23.986 0 0 0 1.939.98a1.773 1.773 0 0 0 1.112 1.64 2.742 2.742 0 0 0-.8.1 1.623 1.623 0 0 0 1.455 1.3 1.192 1.192 0 0 0-.891.35 1.5 1.5 0 0 0 1.6.79c-1 .43-.407 1.24.4 1.12a3.446 3.446 0 0 1-4.823.13c3.274 4.48 10.391 2.65 11.452-1.67A1.962 1.962 0 0 0 13 4.15z"/></svg>