<svg xmlns="http://www.w3.org/2000/svg" width="15.094" height="12.062" viewBox="0 0 15.094 12.062"><defs><style>.cls-1{fill:#dcdcdc;fill-rule:evenodd}</style></defs><path class="cls-1" d="M6.105 7.42a2.042 2.042 0 0 0 2.88 0l4.235-4.234a2.041 2.041 0 0 0 0-2.88l-.318-.317H2.188l-.317.317a2.042 2.042 0 0 0 0 2.88zM14.139.33a2.756 2.756 0 0 1-.412 3.364L9.493 7.928a2.762 2.762 0 0 1-3.9 0L1.359 3.694A2.761 2.761 0 0 1 .971.289a2.34 2.34 0 0 0-.975 1.856v7.761a2.112 2.112 0 0 0 2.16 2.156h10.78a2.112 2.112 0 0 0 2.156-2.156V2.145A1.941 1.941 0 0 0 14.139.33z"/></svg>