<?xml version="1.0" encoding="UTF-8"?><!DOCTYPE svg PUBLIC "-//W3C//DTD SVG 1.1//EN" "http://www.w3.org/Graphics/SVG/1.1/DTD/svg11.dtd"><svg xmlns="http://www.w3.org/2000/svg"><defs><style>.cls-1{fill:#fff;fill-rule:evenodd;filter:url(#filter)}</style><filter id="filter" x="7.688" y="270.406" width="22.438" height="23.594" filterUnits="userSpaceOnUse"><feOffset result="offset" dy="1" in="SourceAlpha"/><feGaussianBlur result="blur"/><feFlood result="flood" flood-color="#fff" flood-opacity=".6"/><feComposite result="composite" operator="in" in2="blur"/><feBlend result="blend" in="SourceGraphic"/><feFlood result="flood-2" flood-color="#bb341b"/><feComposite result="composite-2" operator="in" in2="SourceGraphic"/><feBlend result="blend-2" in2="blend"/></filter><style>.cls-1{fill:#fff;fill-rule:evenodd;filter:url(#filter)}</style><filter id="filter" x="177" y="2777.13" width="14" height="25.87" filterUnits="userSpaceOnUse"><feOffset result="offset" dy="1" in="SourceAlpha"/><feGaussianBlur result="blur" stdDeviation="1"/><feFlood result="flood" flood-opacity=".13"/><feComposite result="composite" operator="in" in2="blur"/><feBlend result="blend" in="SourceGraphic"/></filter><style>.cls-1{fill:#fff;fill-rule:evenodd;filter:url(#filter)}</style><filter id="filter" x="298" y="2779.63" width="19" height="19.37" filterUnits="userSpaceOnUse"><feOffset result="offset" dy="1" in="SourceAlpha"/><feGaussianBlur result="blur" stdDeviation="1"/><feFlood result="flood" flood-opacity=".13"/><feComposite result="composite" operator="in" in2="blur"/><feBlend result="blend" in="SourceGraphic"/></filter><style>.cls-1{fill:#fff;fill-rule:evenodd;filter:url(#filter)}</style><filter id="filter" x="231" y="2779.75" width="29" height="21.25" filterUnits="userSpaceOnUse"><feOffset result="offset" dy="1" in="SourceAlpha"/><feGaussianBlur result="blur" stdDeviation="1"/><feFlood result="flood" flood-opacity=".13"/><feComposite result="composite" operator="in" in2="blur"/><feBlend result="blend" in="SourceGraphic"/></filter></defs><symbol id="ball-outline" viewBox="0 0 22.438 23.594"><path id="ball" class="cls-1" d="M18.913 292.842a11.221 11.221 0 1 1 11.221-11.221 11.234 11.234 0 0 1-11.221 11.221zm9.463-9.685a14.087 14.087 0 0 0-5.97-.41 41.375 41.375 0 0 1 1.862 6.834 9.6 9.6 0 0 0 4.108-6.424zm-5.719 7.3a39.85 39.85 0 0 0-2.045-7.268l-.063.021a13.139 13.139 0 0 0-7.519 5.99 9.57 9.57 0 0 0 9.627 1.258zm-10.864-2.414a15.206 15.206 0 0 1 7.79-6.325q.187-.06.378-.114a30.5 30.5 0 0 0-.777-1.626 35.355 35.355 0 0 1-9.85 1.364v.293a9.546 9.546 0 0 0 2.459 6.409zm-2.261-8.371a35.765 35.765 0 0 0 8.86-1.168 61.226 61.226 0 0 0-3.553-5.543 9.621 9.621 0 0 0-5.308 6.712zm7.136-7.355a51.137 51.137 0 0 1 3.576 5.611 10.831 10.831 0 0 0 5.023-3.462 9.576 9.576 0 0 0-8.6-2.148zm9.665 3.257a12.77 12.77 0 0 1-5.352 3.779 29.436 29.436 0 0 1 .842 1.888 22.4 22.4 0 0 1 6.674.308 9.538 9.538 0 0 0-2.165-5.974z" transform="translate(-7.688 -270.406)"/></symbol><symbol id="fb" viewBox="0 0 14 25.87"><path class="cls-1" d="M8.375 22.26h-4.6V11.12h-2.3V7.29h2.3V4.98c0-3.12 1.3-4.99 4.985-4.99h3.069v3.84H9.911c-1.436 0-1.53.54-1.53 1.54l-.006 1.92h3.476l-.407 3.83H8.375v11.14z"/></symbol><symbol id="rss" viewBox="0 0 19 19.37"><path class="cls-1" d="M1.026 8.46a7.316 7.316 0 0 1 5.236 2.18 7.413 7.413 0 0 1 2.171 5.27h3.049A10.49 10.49 0 0 0 1.026 5.41v3.05zm0-5.4a12.83 12.83 0 0 1 12.787 12.85h3.049A15.884 15.884 0 0 0 1.026.01v3.05zm4.216 10.72a2.112 2.112 0 1 1-2.112-2.11 2.117 2.117 0 0 1 2.117 2.11z"/></symbol><symbol id="twitter" viewBox="0 0 29 21.25"><path class="cls-1" d="M27.012 8.03a6.223 6.223 0 0 1-2.862-.29 3.078 3.078 0 0 0 2.751-1.64 4.526 4.526 0 0 1-2.977.33c-.044-.21-.092-.4-.14-.58-.667-2.46-2.957-4.44-5.355-4.2.193-.08.39-.15.588-.22.262-.09 1.812-.34 1.568-.89-.206-.48-2.1.36-2.455.47a1.869 1.869 0 0 0 1.331-1.02 3.737 3.737 0 0 0-1.974.94 1.408 1.408 0 0 0 .378-.75c-1.922 1.23-3.046 3.7-3.954 6.11A9.4 9.4 0 0 0 12 4.75a49.038 49.038 0 0 0-6.482-2.86 3.432 3.432 0 0 0 2.16 3.18 5.14 5.14 0 0 0-1.553.19c.215 1.13.92 2.07 2.829 2.52a2.274 2.274 0 0 0-1.732.68 2.933 2.933 0 0 0 3.11 1.53c-1.939.83-.791 2.38.788 2.15a6.686 6.686 0 0 1-9.372.25C8.11 21.07 21.94 17.52 24 9.17a3.852 3.852 0 0 0 3.012-1.14z"/></symbol></svg>