<svg xmlns="http://www.w3.org/2000/svg" width="22.438" height="23.594" viewBox="0 0 22.438 23.594"><defs><style>.cls-1{fill:#fff;fill-rule:evenodd;filter:url(#filter)}</style><filter id="filter" x="7.688" y="270.406" width="22.438" height="23.594" filterUnits="userSpaceOnUse"><feOffset result="offset" dy="1" in="SourceAlpha"/><feGaussianBlur result="blur"/><feFlood result="flood" flood-color="#fff" flood-opacity=".6"/><feComposite result="composite" operator="in" in2="blur"/><feBlend result="blend" in="SourceGraphic"/><feFlood result="flood-2" flood-color="#bb341b"/><feComposite result="composite-2" operator="in" in2="SourceGraphic"/><feBlend result="blend-2" in2="blend"/></filter></defs><path id="ball" class="cls-1" d="M18.913 292.842a11.221 11.221 0 1 1 11.221-11.221 11.234 11.234 0 0 1-11.221 11.221zm9.463-9.685a14.087 14.087 0 0 0-5.97-.41 41.375 41.375 0 0 1 1.862 6.834 9.6 9.6 0 0 0 4.108-6.424zm-5.719 7.3a39.85 39.85 0 0 0-2.045-7.268l-.063.021a13.139 13.139 0 0 0-7.519 5.99 9.57 9.57 0 0 0 9.627 1.258zm-10.864-2.414a15.206 15.206 0 0 1 7.79-6.325q.187-.06.378-.114a30.5 30.5 0 0 0-.777-1.626 35.355 35.355 0 0 1-9.85 1.364v.293a9.546 9.546 0 0 0 2.459 6.409zm-2.261-8.371a35.765 35.765 0 0 0 8.86-1.168 61.226 61.226 0 0 0-3.553-5.543 9.621 9.621 0 0 0-5.308 6.712zm7.136-7.355a51.137 51.137 0 0 1 3.576 5.611 10.831 10.831 0 0 0 5.023-3.462 9.576 9.576 0 0 0-8.6-2.148zm9.665 3.257a12.77 12.77 0 0 1-5.352 3.779 29.436 29.436 0 0 1 .842 1.888 22.4 22.4 0 0 1 6.674.308 9.538 9.538 0 0 0-2.165-5.974z" transform="translate(-7.688 -270.406)"/></svg>