<svg xmlns="http://www.w3.org/2000/svg" width="19" height="19.37" viewBox="0 0 19 19.37"><defs><style>.cls-1{fill:#fff;fill-rule:evenodd;filter:url(#filter)}</style><filter id="filter" x="298" y="2779.63" width="19" height="19.37" filterUnits="userSpaceOnUse"><feOffset result="offset" dy="1" in="SourceAlpha"/><feGaussianBlur result="blur" stdDeviation="1"/><feFlood result="flood" flood-opacity=".13"/><feComposite result="composite" operator="in" in2="blur"/><feBlend result="blend" in="SourceGraphic"/></filter></defs><path class="cls-1" d="M1.026 8.46a7.316 7.316 0 0 1 5.236 2.18 7.413 7.413 0 0 1 2.171 5.27h3.049A10.49 10.49 0 0 0 1.026 5.41v3.05zm0-5.4a12.83 12.83 0 0 1 12.787 12.85h3.049A15.884 15.884 0 0 0 1.026.01v3.05zm4.216 10.72a2.112 2.112 0 1 1-2.112-2.11 2.117 2.117 0 0 1 2.117 2.11z"/></svg>