<svg xmlns="http://www.w3.org/2000/svg" width="29" height="21.25" viewBox="0 0 29 21.25"><defs><style>.cls-1{fill:#fff;fill-rule:evenodd;filter:url(#filter)}</style><filter id="filter" x="231" y="2779.75" width="29" height="21.25" filterUnits="userSpaceOnUse"><feOffset result="offset" dy="1" in="SourceAlpha"/><feGaussianBlur result="blur" stdDeviation="1"/><feFlood result="flood" flood-opacity=".13"/><feComposite result="composite" operator="in" in2="blur"/><feBlend result="blend" in="SourceGraphic"/></filter></defs><path class="cls-1" d="M27.012 8.03a6.223 6.223 0 0 1-2.862-.29 3.078 3.078 0 0 0 2.751-1.64 4.526 4.526 0 0 1-2.977.33c-.044-.21-.092-.4-.14-.58-.667-2.46-2.957-4.44-5.355-4.2.193-.08.39-.15.588-.22.262-.09 1.812-.34 1.568-.89-.206-.48-2.1.36-2.455.47a1.869 1.869 0 0 0 1.331-1.02 3.737 3.737 0 0 0-1.974.94 1.408 1.408 0 0 0 .378-.75c-1.922 1.23-3.046 3.7-3.954 6.11A9.4 9.4 0 0 0 12 4.75a49.038 49.038 0 0 0-6.482-2.86 3.432 3.432 0 0 0 2.16 3.18 5.14 5.14 0 0 0-1.553.19c.215 1.13.92 2.07 2.829 2.52a2.274 2.274 0 0 0-1.732.68 2.933 2.933 0 0 0 3.11 1.53c-1.939.83-.791 2.38.788 2.15a6.686 6.686 0 0 1-9.372.25C8.11 21.07 21.94 17.52 24 9.17a3.852 3.852 0 0 0 3.012-1.14z"/></svg>