<svg xmlns="http://www.w3.org/2000/svg" width="19.5" height="27" viewBox="0 0 19.5 27"><defs><style>.cls-1{fill:#fff;fill-rule:evenodd;filter:url(#filter)}</style><filter id="filter" x="704.781" y="147" width="19.5" height="27" filterUnits="userSpaceOnUse"><feOffset result="offset" dy="1" in="SourceAlpha"/><feGaussianBlur result="blur"/><feFlood result="flood" flood-color="#fff"/><feComposite result="composite" operator="in" in2="blur"/><feBlend result="blend" in="SourceGraphic"/><feFlood result="flood-2" flood-color="#7d7d7d"/><feComposite result="composite-2" operator="in" in2="SourceGraphic"/><feBlend result="blend-2" in2="blend"/></filter></defs><path class="cls-1" d="M18.836 26H.676a.678.678 0 0 1-.672-.684V.684A.678.678 0 0 1 .676 0h12.109a.664.664 0 0 1 .47.2l6.053 6.158a.686.686 0 0 1 .193.478V25.31a.678.678 0 0 1-.665.69zM1.349 24.632h16.814V7.526h-5.38a.678.678 0 0 1-.673-.684V1.369H1.349v23.263zM13.455 6.158h3.757l-3.757-3.822v3.822zm2.354 14.71H3.703a.684.684 0 0 1 0-1.368h12.106a.684.684 0 0 1 0 1.368zm0-3.078H3.703a.685.685 0 0 1 0-1.369h12.106a.685.685 0 0 1 0 1.369zm-6.053-3.079H3.703a.685.685 0 0 1 0-1.369h6.053a.685.685 0 0 1 0 1.369zm-.473-7.185h-5.58a.678.678 0 0 1-.673-.684V3.763a.678.678 0 0 1 .673-.684h5.58a.679.679 0 0 1 .673.684v3.079a.679.679 0 0 1-.673.684zM4.375 6.158h4.236V4.447H4.375v1.711z"/></svg>