<svg xmlns="http://www.w3.org/2000/svg" width="25.563" height="27" viewBox="0 0 25.563 27"><defs><style>.cls-1{fill:#fff;fill-rule:evenodd;filter:url(#filter)}</style><filter id="filter" x="377" y="147" width="25.563" height="27" filterUnits="userSpaceOnUse"><feOffset result="offset" dy="1" in="SourceAlpha"/><feGaussianBlur result="blur"/><feFlood result="flood" flood-color="#fff"/><feComposite result="composite" operator="in" in2="blur"/><feBlend result="blend" in="SourceGraphic"/><feFlood result="flood-2" flood-color="#7d7d7d"/><feComposite result="composite-2" operator="in" in2="SourceGraphic"/><feBlend result="blend-2" in2="blend"/></filter></defs><path class="cls-1" d="M12.785 26a13 13 0 1 1 12.779-13 12.906 12.906 0 0 1-12.779 13zm5.372-5.985a13.38 13.38 0 0 1-3.011 4.367 11.341 11.341 0 0 0 5.348-2.8 15.843 15.843 0 0 0-2.337-1.567zm-13.111 1.54a11.345 11.345 0 0 0 5.379 2.827 13.394 13.394 0 0 1-3.07-4.5 13.918 13.918 0 0 0-2.309 1.673zm8.412-3.048v5.546a11.7 11.7 0 0 0 3.484-4.63 11.719 11.719 0 0 0-3.484-.916zm-4.893.767a11.731 11.731 0 0 0 3.548 4.779v-5.585a9.994 9.994 0 0 0-3.548.806zm10.066-.5a17.84 17.84 0 0 1 2.794 1.835 11.694 11.694 0 0 0 2.775-6.926h-4.7a17.767 17.767 0 0 1-.869 5.092zm-17.26-5.091a11.692 11.692 0 0 0 2.739 6.886 15.052 15.052 0 0 1 2.766-1.987 17.905 17.905 0 0 1-.806-4.9h-4.7zm12.087 3.483a13.275 13.275 0 0 1 3.945 1.024 16.48 16.48 0 0 0 .751-4.507h-4.7v3.483zm-6.042-3.483a16.6 16.6 0 0 0 .688 4.305 11.093 11.093 0 0 1 4.009-.867v-3.438h-4.7zM19.5 12.315h4.7a11.694 11.694 0 0 0-2.74-6.885 15.058 15.058 0 0 1-2.766 1.986 17.905 17.905 0 0 1 .806 4.9zm-6.042 0h4.7a16.631 16.631 0 0 0-.687-4.3 11.111 11.111 0 0 1-4.009.866v3.438zm-6.042 0h4.7V8.832A13.274 13.274 0 0 1 8.17 7.808a16.48 16.48 0 0 0-.754 4.508zm-6.045 0h4.7a17.8 17.8 0 0 1 .869-5.091 17.811 17.811 0 0 1-2.794-1.836 11.692 11.692 0 0 0-2.775 6.928zM13.458 1.946v5.585a9.946 9.946 0 0 0 3.547-.806 11.739 11.739 0 0 0-3.547-4.778zm-4.83 4.63a11.688 11.688 0 0 0 3.485.916V1.946a11.7 11.7 0 0 0-3.485 4.631zm6.518-4.959a13.423 13.423 0 0 1 3.07 4.5 13.954 13.954 0 0 0 2.308-1.677 11.347 11.347 0 0 0-5.378-2.822zm-10.069 2.8a15.826 15.826 0 0 0 2.336 1.568 13.38 13.38 0 0 1 3.012-4.367 11.331 11.331 0 0 0-5.348 2.799z"/></svg>