<svg id="Layer_1" xmlns="http://www.w3.org/2000/svg" viewBox="0 0 260.6 69.5"><style>.st0{fill:#fff}</style><path class="st0" d="M214.9 23.5V.1h18.3v6.2h-11.1v2.1h8.7v5.7h-8.7v3.3h11.3v6.2l-18.5-.1zm-91.4-.5l.1-22.8H46.5V8h15v53.7H7.8V8h13.6l.1.1 15.1 15 5.5-5.5L24.7.2H0v69.3h123.6l-.1-24.6-17.4-17.4-5.4 5.5 15.1 15.1v13.6H69.3V8h46.5v15zm10.6.5V.1h7.1l5.1 8.3 5.1-8.3h7.1v23.4h-6.9V10.4l-3.3 5.6h-3.9l-3.4-5.6v13.1h-6.9zm26.9 0L170.6 0h6.8l9.6 23.5h-7.7l-1.7-4.4H170l-1.7 4.4H161zm11.2-9.8h3.4l-1.7-5.5-1.7 5.5zm40.4 9.8h-8.4l-6.2-8.3h-1v8.3h-7.2V.1h11.3c2.6 0 4.8.7 6.4 2.1 1.6 1.4 2.4 3.2 2.4 5.4 0 2.9-1.6 5.4-4.3 6.7l7 9.2zM200.3 9.9c1.3 0 2.2-.7 2.2-1.9s-.9-1.9-2.2-1.9H197v3.8h3.3zm44.2 13.7L235.2.1h8l4.9 13.9L252.9.1h7.7l-9.3 23.5h-6.8zm-61.8 29.6h-8.4l-6.2-8.3h-1v8.3h-7.2V29.8h11.3c2.6 0 4.8.7 6.4 2.1s2.4 3.2 2.4 5.4c0 2.9-1.6 5.4-4.3 6.7l7 9.2zm-12.3-13.6c1.3 0 2.2-.7 2.2-1.9s-.9-1.9-2.2-1.9h-3.3v3.8h3.3zm16.8-6.7c2.4-2.4 5.4-3.6 9-3.6s6.6 1.2 8.9 3.6c2.4 2.4 3.5 5.2 3.5 8.6s-1.2 6.2-3.5 8.6c-2.4 2.4-5.3 3.5-8.9 3.5s-6.6-1.2-9-3.6-3.5-5.2-3.5-8.6c0-3.3 1.1-6.1 3.5-8.5zm9 14.2c1.5 0 2.7-.5 3.7-1.6s1.5-2.4 1.5-4-.5-3-1.5-4c-1-1.1-2.2-1.6-3.7-1.6s-2.7.5-3.7 1.6c-1 1-1.5 2.4-1.5 4s.5 3 1.5 4c.9 1.1 2.2 1.6 3.7 1.6zm15.9-17.3h7.2v13.7c0 2.5 1.5 3.6 3.5 3.6s3.5-1.1 3.5-3.6V29.8h7.2v13.7c0 3.2-1 5.7-3 7.5s-4.5 2.6-7.6 2.6-5.6-.9-7.6-2.6c-2-1.8-3-4.3-3-7.5l-.2-13.7zm36.2 0c2.7 0 4.8.7 6.4 2.1s2.4 3.2 2.4 5.5c0 2.2-.8 4-2.4 5.5-1.6 1.4-3.7 2.1-6.4 2.1h-3.6v8.1h-7.2V29.7h10.8v.1zm-1 10c1.5 0 2.5-.9 2.5-2.1s-1-2.1-2.5-2.1h-2.6v4.2h2.6zm-98.1-.2v7.2c-.6.4-1.6.7-2.8.7-1.6 0-2.9-.5-4-1.5s-1.6-2.4-1.6-4.3c-.2-4.1 3.7-6.3 8.4-5.6v-6.5c-.8-.1-1.6-.2-2.5-.2-3.8 0-7 1.1-9.5 3.4-2.5 2.2-3.8 5.2-3.8 8.7 0 3.6 1.2 6.5 3.7 8.7s5.6 3.4 9.2 3.4c2.1 0 4-.3 5.9-1 1.8-.7 3.2-1.6 4.1-2.5V39.6h-7.1z"/></svg>