<svg xmlns="http://www.w3.org/2000/svg" width="12.281" height="10.94" viewBox="0 0 12.281 10.94"><defs><style>.cls-1{fill:#fff;fill-rule:evenodd}</style></defs><path id="European_Home" data-name="European Home" class="cls-1" d="M848.145 4275.51l4.635 3.27a.34.34 0 0 1 .144.28v4.23a.339.339 0 0 1-.341.34h-8.876a.34.34 0 0 1-.342-.34v-4.23a.339.339 0 0 1 .145-.28l4.635-3.27m.124-1.43h-.249a.688.688 0 0 0-.394.12l-5.337 3.77a.679.679 0 0 0-.289.56v5.79a.685.685 0 0 0 .683.68h10.924a.685.685 0 0 0 .683-.68v-5.79a.679.679 0 0 0-.289-.56l-5.338-3.77a.688.688 0 0 0-.394-.12zm-1.148 5.46h-2.049a.339.339 0 0 0-.341.34v5.12h2.731v-5.12a.339.339 0 0 0-.341-.34zm4.1 1.36h-2.048a.34.34 0 0 1-.342-.34v-.68a.34.34 0 0 1 .342-.34h2.048a.34.34 0 0 1 .342.34v.68a.34.34 0 0 1-.346.34z" transform="translate(-842 -4274.06)"/></svg>