<svg xmlns="http://www.w3.org/2000/svg" width="18.97" height="18.97" viewBox="0 0 18.97 18.97"><defs><style>.cls-1{fill:#c1c1c1;fill-rule:evenodd}</style></defs><path id="Forma_1" data-name="Forma 1" class="cls-1" d="M1042.99 1275.51a9.485 9.485 0 1 0 9.49 9.48 9.487 9.487 0 0 0-9.49-9.48zm1.98 14.7c-.49.19-.88.34-1.17.44a3.111 3.111 0 0 1-1.01.15 2.02 2.02 0 0 1-1.38-.43 1.4 1.4 0 0 1-.49-1.1 4.844 4.844 0 0 1 .03-.53c.03-.18.07-.38.12-.61l.61-2.16c.06-.2.1-.4.14-.58a2.5 2.5 0 0 0 .06-.51.759.759 0 0 0-.18-.58.945.945 0 0 0-.65-.16 1.594 1.594 0 0 0-.48.07c-.17.05-.31.1-.43.14l.16-.66c.4-.16.79-.3 1.15-.42a3.321 3.321 0 0 1 1.04-.17 2.012 2.012 0 0 1 1.36.42 1.428 1.428 0 0 1 .47 1.11c0 .09-.01.26-.03.49a3.13 3.13 0 0 1-.12.65l-.61 2.16a5.912 5.912 0 0 0-.13.59 3.091 3.091 0 0 0-.06.5.709.709 0 0 0 .19.58 1.031 1.031 0 0 0 .66.16 2.055 2.055 0 0 0 .51-.08 2.466 2.466 0 0 0 .4-.14zm-.11-8.74a1.411 1.411 0 0 1-1.02.4 1.451 1.451 0 0 1-1.03-.4 1.275 1.275 0 0 1 0-1.91 1.451 1.451 0 0 1 1.03-.4 1.411 1.411 0 0 1 1.02.4 1.275 1.275 0 0 1 0 1.91z" transform="translate(-1033.5 -1275.5)"/></svg>