<svg xmlns="http://www.w3.org/2000/svg" width="29.6" height="29.59" viewBox="0 0 29.6 29.59"><defs><style>.cls-1{fill:#3d3741;fill-rule:evenodd}</style></defs><path id="Forma_1" data-name="Forma 1" class="cls-1" d="M1290.37 4817.18a14.8 14.8 0 1 0 14.79 14.8 14.8 14.8 0 0 0-14.79-14.8zm7.75 21.99a.559.559 0 0 1-.56.56h-14.39a.566.566 0 0 1-.56-.56v-14.38a.566.566 0 0 1 .56-.56h14.39a.559.559 0 0 1 .56.56v14.38zm-10.85-7.19a3.1 3.1 0 1 0 3.1-3.1 3.1 3.1 0 0 0-3.1 3.1zm6.2-6.2h3.1v3.1h-3.1v-3.1zm1.51 6.2a4.615 4.615 0 0 1-9.23 0 2.938 2.938 0 0 1 .11-.78h-1.7v6.98h12.41v-6.98h-1.69a3.4 3.4 0 0 1 .1.78z" transform="translate(-1275.56 -4817.19)"/></svg>