<svg xmlns="http://www.w3.org/2000/svg" width="12.25" height="12.25" viewBox="0 0 12.25 12.25"><defs><style>.cls-1{fill:#fff;fill-rule:evenodd}</style></defs><path id="User" class="cls-1" d="M850.734 4321.84a3.748 3.748 0 0 0 .219-1.26 3.828 3.828 0 1 0-7.656 0 3.748 3.748 0 0 0 .219 1.26 4.6 4.6 0 0 0-2.516 4.1v2.29a.765.765 0 0 0 .767.77h10.716a.765.765 0 0 0 .767-.77v-2.29a4.6 4.6 0 0 0-2.516-4.1zm-3.609-3.56a2.3 2.3 0 1 1-2.3 2.3 2.3 2.3 0 0 1 2.3-2.3zm4.594 9.19h-9.188v-1.53a3.073 3.073 0 0 1 1.775-2.78 3.8 3.8 0 0 0 5.638 0 3.073 3.073 0 0 1 1.775 2.78v1.53z" transform="translate(-841 -4316.75)"/></svg>