<svg xmlns="http://www.w3.org/2000/svg" width="27.56" height="27.56" viewBox="0 0 27.56 27.56"><defs><style>.cls-1{fill:#3d3741;fill-rule:evenodd}</style></defs><path id="Forma_1" data-name="Forma 1" class="cls-1" d="M1249.72 4818a13.78 13.78 0 1 0 13.78 13.78 13.793 13.793 0 0 0-13.78-13.78zm6.15 10.63c.01.14.01.27.01.41a9.017 9.017 0 0 1-13.89 7.6 6.533 6.533 0 0 0 4.7-1.31 3.2 3.2 0 0 1-2.97-2.21 3.053 3.053 0 0 0 .6.06 3.336 3.336 0 0 0 .84-.11 3.176 3.176 0 0 1-2.55-3.11v-.04a3.2 3.2 0 0 0 1.44.4 3.174 3.174 0 0 1-1.41-2.64 3.216 3.216 0 0 1 .43-1.6 9.024 9.024 0 0 0 6.54 3.32 2.979 2.979 0 0 1-.09-.73 3.176 3.176 0 0 1 5.49-2.17 6.265 6.265 0 0 0 2.02-.77 3.187 3.187 0 0 1-1.4 1.76 6.541 6.541 0 0 0 1.82-.5 6.479 6.479 0 0 1-1.58 1.64z" transform="translate(-1235.94 -4818)"/></svg>